<svg xmlns="http://www.w3.org/2000/svg" viewBox="0 0 692.39 1056.64"><defs><style>.cls-1{isolation:isolate;}.cls-2{fill:#fff;mix-blend-mode:screen;}.cls-3{fill:#f5f7f6;}</style></defs><g class="cls-1"><g id="Layer_2" data-name="Layer 2"><g id="Layer_1-2" data-name="Layer 1"><path class="cls-2" d="M686.49,567.37V823.82c-197.73,34.59-462.71,66-661.58,96.33-34.28-58-19.8-187.78-22.58-253.24C206,631.46,481.41,598.57,686.49,567.37Z"/><path class="cls-2" d="M258.59,231.4V1051c-98.94,7.8-193.63-44.39-233.68-130.87C-19,894.16,10.18,58.51,2.33.9,138.08-10.81,259.37,93.33,258.59,231.4Z"/><path class="cls-2" d="M686.49,347.46c-26.18,224.39,116.69,724.1-256.26,708.84C456.42,831.9,313.55,332.2,686.49,347.46Z"/><path class="cls-2" d="M686.5,129c-2.88,168.43-253.41,168.41-256.27,0C433.11-39.4,683.64-39.37,686.5,129Z"/><path class="cls-3" d="M258.59,1051c-135.75,11.69-257-92.41-256.26-230.5V.9"/><path class="cls-3" d="M458.06,562.63c-.68-113,99.67-198.23,211.52-188.61"/><polygon class="cls-3" points="430.23 603.76 430.23 862.59 381.33 869.53 430.23 603.76"/></g></g></g></svg>