<svg xmlns="http://www.w3.org/2000/svg" viewBox="0 0 684.17 1055.4"><defs><style>.cls-1{fill:#222;}.cls-2{fill:#1a1a1a;}</style></defs><g id="Layer_2" data-name="Layer 2"><g id="Layer_1-2" data-name="Layer 1"><path class="cls-1" d="M684.16,566.47V822.92a231.92,231.92,0,0,1-32.43,7L427.9,861.69,256.26,886.07,22.58,919.25A229.64,229.64,0,0,1,0,819.62V666a231.92,231.92,0,0,1,32.43-7l223.83-31.78L427.9,602.86Z"/><path class="cls-1" d="M256.26,230.5v819.62H230.5A230.33,230.33,0,0,1,0,819.62V0H25.76C153.06,0,256.26,103.2,256.26,230.5Z"/><path class="cls-1" d="M684.16,346.56V824.9c0,127.3-103.19,230.5-230.5,230.5H427.9V577.06c0-127.3,103.2-230.5,230.5-230.5Z"/><circle class="cls-1" cx="556.04" cy="128.14" r="128.13"/><path class="cls-2" d="M256.26,1050.12H230.5C103.2,1050.12,0,946.93,0,819.62V0"/><path class="cls-2" d="M455.73,561.73c0-104.16,85.18-188.6,190.26-188.6h21.26"/><polygon class="cls-2" points="427.9 602.86 427.9 861.69 379 868.64 427.9 602.86"/></g></g></svg>